<svg width="15" height="8" viewBox="0 0 15 8" fill="none" xmlns="http://www.w3.org/2000/svg">
<g clip-path="url(#clip0_1299_53571)">
<path d="M0.694038 4.6746L12.6625 4.67989L10.4257 6.86307C10.3606 6.92509 10.309 6.99919 10.2737 7.081C10.2385 7.16281 10.2204 7.25067 10.2206 7.3394C10.2257 7.9313 10.9622 8.22226 11.3882 7.80045L14.7993 4.47865C14.8628 4.41692 14.9132 4.34358 14.9476 4.26283C14.982 4.18208 14.9997 4.09551 14.9997 4.00809C14.9997 3.92066 14.982 3.83409 14.9476 3.75334C14.9132 3.67259 14.8628 3.59925 14.7993 3.53753L11.3882 0.216029C10.7437 -0.434438 9.75597 0.533786 10.427 1.1584L12.6756 3.35061L0.69276 3.34531C0.60199 3.3434 0.511741 3.35917 0.427308 3.39171C0.342874 3.42425 0.265957 3.4729 0.201066 3.53481C0.136176 3.59672 0.0846198 3.67064 0.049422 3.75223C0.0142242 3.83382 -0.00390643 3.92144 -0.00390642 4.00996C-0.00390642 4.09847 0.0142243 4.18609 0.049422 4.26768C0.0846198 4.34927 0.136176 4.42319 0.201066 4.4851C0.265957 4.54701 0.342874 4.59566 0.427308 4.6282C0.511741 4.66074 0.60199 4.67651 0.69276 4.6746L0.694038 4.6746Z" fill="#EE8031"/>
</g>
<defs>
<clipPath id="clip0_1299_53571">
<rect width="8" height="15" fill="white" transform="translate(0 8) rotate(-90)"/>
</clipPath>
</defs>
</svg>
