<svg width="19" height="15" viewBox="0 0 19 15" fill="none" xmlns="http://www.w3.org/2000/svg">
<path d="M0.303488 8.20027L7.16512 14.7121C7.3605 14.8965 7.62485 15 7.90041 15C8.17596 15 8.44032 14.8965 8.63569 14.7121L9.25898 14.1206C9.35546 14.0293 9.43194 13.9207 9.48404 13.8012C9.53613 13.6817 9.56281 13.5536 9.56252 13.4243C9.56359 13.1602 9.45447 12.9065 9.25898 12.7185L5.25585 8.90976L17.9735 8.90976C18.1084 8.91128 18.2422 8.88725 18.3672 8.83909C18.4922 8.79092 18.6058 8.71959 18.7014 8.62927C18.797 8.53894 18.8726 8.43143 18.9239 8.31303C18.9751 8.19463 19.001 8.06772 19 7.93971L19 7.1038C19 6.55922 18.547 6.0905 17.9735 6.0905L5.21028 6.0905L9.2586 2.26199C9.35478 2.17117 9.4311 2.06321 9.48317 1.94431C9.53525 1.82542 9.56206 1.69793 9.56206 1.56917C9.56206 1.44042 9.53525 1.31293 9.48317 1.19404C9.4311 1.07514 9.35478 0.967183 9.2586 0.876363L8.63569 0.287078C8.44032 0.102676 8.17596 -0.000834458 7.90041 -0.000834482C7.62485 -0.000834506 7.3605 0.102676 7.16512 0.287078L0.303488 6.79962C0.109025 6.98599 -6.41712e-05 7.23767 -6.41942e-05 7.49995C-6.42171e-05 7.76222 0.109025 8.0139 0.303488 8.20027Z" fill="#EE8031"/>
</svg>
